<svg xmlns="http://www.w3.org/2000/svg" viewBox="0 0 100 60">
  <path fill="#1a1a2e" d="
    M50 10
    C50 10 42 2 30 4
    C18 6 10 14 6 20
    C2 26 0 34 2 38
    C6 30 14 26 20 28
    C16 32 14 38 16 44
    C20 38 24 34 28 33
    C30 38 34 42 36 48
    C38 44 42 40 44 38
    C46 42 48 50 50 54
    C52 50 54 42 56 38
    C58 40 62 44 64 48
    C66 42 70 38 72 33
    C76 34 80 38 84 44
    C86 38 84 32 80 28
    C86 26 94 30 98 38
    C100 34 98 26 94 20
    C90 14 82 6 70 4
    C58 2 50 10 50 10Z
  "/>
</svg>
